<?xml version="1.0" standalone="no"?>
<!DOCTYPE svg PUBLIC "-//W3C//DTD SVG 1.1//EN" "http://www.w3.org/Graphics/SVG/1.1/DTD/svg11.dtd" >
<svg>
<metadata>
Created by FontForge 20110222 at Wed Oct  1 04:31:13 2014
 By Orthosie Webhosting
</metadata>
<defs>
<font id="UntitledRegular" horiz-adv-x="833" >
  <font-face 
    font-family="UntitledRegular"
    font-weight="400"
    font-stretch="normal"
    units-per-em="1000"
    panose-1="0 0 0 0 0 0 0 0 0 0"
    ascent="750"
    descent="-250"
    x-height="718"
    cap-height="749"
    bbox="0 -252 1677 752"
    underline-thickness="50"
    underline-position="-50"
    unicode-range="U+000D-007A"
  />
<missing-glyph horiz-adv-x="500" 
 />
    <glyph glyph-name=".notdef" horiz-adv-x="500" 
 />
    <glyph glyph-name=".null" horiz-adv-x="0" 
 />
    <glyph glyph-name="nonmarkingreturn" unicode="&#xd;" horiz-adv-x="500" 
 />
    <glyph glyph-name="NULL" horiz-adv-x="0" 
 />
    <glyph glyph-name="NULL" horiz-adv-x="0" 
 />
    <glyph glyph-name="space" unicode=" " horiz-adv-x="500" 
 />
    <glyph glyph-name="zero" unicode="0" 
d="M0 582h116v-466h233v232l350 -288l-350 -294v233h-349v583z" />
    <glyph glyph-name="one" unicode="1" 
d="M557 592q0 -23 -17 -39.5t-39 -16.5q-23 0 -39.5 16.5t-16.5 39.5t16.5 39.5t39.5 16.5q22 0 39 -16.5t17 -39.5zM878 265q0 -23 -15.5 -39.5t-39.5 -16.5t-40 16.5t-16 39.5t16 39.5t40 16.5t39.5 -16.5t15.5 -39.5zM241 503q9 10 22 10t22 -10l208 -208h8h161
q18 0 29.5 -12t11.5 -29t-11.5 -28.5t-29.5 -11.5h-161q-26 0 -39 25l-221 221q-9 10 -9 22t9 21zM206 -4q37 0 70.5 5.5t59 14.5t42.5 22t21 28v-40q-4 -15 -21 -28.5t-42.5 -23.5t-59 -15.5t-70.5 -5.5q-38 0 -71.5 5.5t-59.5 15.5t-42.5 23.5t-19.5 28.5v40
q3 -15 19.5 -28t42.5 -22t59.5 -14.5t71.5 -5.5zM206 -71q37 0 70.5 6t59 16t42.5 23.5t21 28.5v-42q-4 -15 -21 -28.5t-42.5 -23t-59 -15t-70.5 -5.5q-38 0 -71.5 5.5t-59.5 15t-42.5 23t-19.5 28.5v42q3 -15 19.5 -28.5t42.5 -23.5t59.5 -16t71.5 -6zM206 -131
q37 0 70.5 5.5t59 15t42.5 22.5t21 29v-44q-4 -15 -21 -28t-42.5 -22.5t-59 -15t-70.5 -5.5q-38 0 -71.5 5.5t-59.5 15t-42.5 22.5t-19.5 28v44q3 -16 19.5 -29t42.5 -22.5t59.5 -15t71.5 -5.5zM206 -197q37 0 70.5 6t59 16t42.5 23.5t21 28.5v-44q-4 -15 -21 -28
t-42.5 -22.5t-59 -15t-70.5 -5.5q-38 0 -71.5 5.5t-59.5 15t-42.5 22.5t-19.5 28v44q3 -15 19.5 -28.5t42.5 -23.5t59.5 -16t71.5 -6zM399 87q-4 -14 -21 -27t-42.5 -22.5t-59 -15t-70.5 -5.5q-38 0 -71.5 5.5t-59.5 15.5t-42.5 23.5t-19.5 28.5v32v2q0 1 3 3q3 15 19 27.5
t41.5 22.5t58.5 15.5t71 5.5q37 0 70 -5.5t58.5 -15.5t42.5 -22.5t22 -27.5v-5v-35zM81 146q-39 -19 -39 -29q0 -3 9.5 -11.5t29.5 -15.5q25 -11 57.5 -17.5t67.5 -6.5t68 6.5t56 17.5q23 7 31 15.5t8 11.5q0 4 -8 11.5t-31 17.5q-23 9 -56 14.5t-68 5.5t-67.5 -5.5
t-57.5 -14.5zM622 -134q37 0 70.5 6t59.5 16t42.5 23.5t20.5 29.5v-44q-4 -15 -20.5 -28t-42.5 -22.5t-59.5 -15t-70.5 -5.5q-38 0 -71 5.5t-59 15t-42.5 22.5t-20.5 28v44q4 -16 20.5 -29.5t42.5 -23.5t59 -16t71 -6zM622 -197q37 0 70.5 5.5t59.5 15t42.5 22.5t20.5 28
v-44q-4 -14 -20.5 -27t-42.5 -22.5t-59.5 -15t-70.5 -5.5q-38 0 -71 5.5t-59 15.5t-42.5 23.5t-20.5 28.5v41q4 -15 20.5 -28t42.5 -22.5t59 -15t71 -5.5zM815 -39q-4 -15 -20.5 -28.5t-42.5 -23t-59.5 -15t-70.5 -5.5q-38 0 -71 5.5t-59 15t-42.5 23t-20.5 28.5v32v2
q0 3 2 3q4 15 20.5 28t42 22.5t58 15t70.5 5.5q37 0 70 -5.5t58.5 -15t42.5 -22.5t22 -28v-2v-35zM498 19q-21 -10 -29.5 -18.5t-8.5 -12.5q0 -2 8.5 -10t29.5 -17q24 -11 57 -15.5t67 -4.5q36 0 68.5 4.5t56.5 15.5q22 9 30 17t8 10q0 4 -8 12.5t-30 18.5q-24 9 -56.5 14
t-68.5 5q-34 0 -67 -5t-57 -14zM66 206q-13 -6 -24.5 -11.5t-20.5 -13.5q-4 21 -6 42t-2 42q0 101 38.5 189.5t104.5 154.5t155 104t190 38t189 -38t153.5 -104t103 -154.5t37.5 -189.5q0 -100 -37 -187.5t-101 -153.5v93q40 51 59 114t19 134q0 88 -33.5 165.5t-91 135.5
t-134.5 91.5t-164 33.5q-89 0 -166.5 -33.5t-135.5 -91.5t-91.5 -135.5t-33.5 -165.5q0 -14 2 -28l4 -28q-5 0 -7 -1.5t-7 -1.5z" />
    <glyph glyph-name="two" unicode="2" 
d="M144 280l411 469l413 -469h-233v-530h-357v530h-234zM416 317v-529h281v529h188q-43 48 -84 94.5t-81.5 92.5t-81 92.5t-83.5 95.5q-43 -50 -83.5 -95.5t-80.5 -90.5t-80.5 -91.5t-84.5 -97.5h190z" />
    <glyph glyph-name="question" unicode="?" 
d="M863 750q51 0 79 -21.5t41 -47.5q15 -30 17 -68v-726q0 -26 -6 -45.5t-16 -34t-22 -24.5t-25 -16q-30 -15 -68 -17h-726q-52 0 -79.5 21t-40.5 47q-15 30 -17 69v726q0 51 21 79t47 41q30 15 69 17h726zM537 -125q20 9 23 26.5t3 36.5q0 18 -3 35t-23 26q-9 20 -26 23
t-36 3q-20 0 -38 -3t-37 -23q-9 -9 -17 -26t-8 -35q0 -19 8 -36.5t17 -26.5q19 -19 37 -22t38 -3q19 0 36 3t26 22zM712 362q19 19 28 45.5t9 54.5q0 38 -18 73.5t-56 63.5q-29 29 -73.5 40t-101.5 11q-66 0 -125.5 -17t-125.5 -46l63 -125q48 28 94 45.5t94 17.5
q19 0 35.5 -7.5t27.5 -18.5q19 -9 22 -19.5t3 -29.5t-1.5 -29.5t-11.5 -21.5q-18 -35 -75 -74q-28 -20 -47 -38t-28 -37q-19 -19 -22 -44t-3 -44v-37h137v25q0 19 1.5 29.5t10.5 19.5l63 63q38 28 64.5 50t35.5 50z" />
    <glyph glyph-name="A" unicode="A" 
d="M142 555h555q0 -58 -19.5 -108.5t-54.5 -88t-83.5 -59.5t-105.5 -22q67 0 127.5 28.5t106.5 75.5t72.5 106.5t26.5 122.5h-693q0 -63 26.5 -122.5t72 -106.5t105.5 -75.5t128 -28.5q-57 0 -105.5 22t-83.5 59.5t-55 88t-20 108.5zM434 221q52 -5 99.5 -27.5t84 -58.5
t58 -84.5t21.5 -105.5h-42q-26 31 -53 52t-53 34t-48.5 18.5t-38.5 5.5q-11 32 -19.5 78t-8.5 144h-14q67 0 108 25.5t63 57.5q26 36 36 83q-39 -21 -77.5 -32t-75 -14.5t-70 -1.5t-62.5 7q-69 12 -130 41q16 -57 42 -90t54.5 -50t55 -21.5t42.5 -4.5v-56q-68 -5 -128 -32.5
t-105.5 -73t-72 -107t-26.5 -133.5h693q0 72 -26.5 133.5t-72.5 107t-106.5 73t-127.5 32.5zM406 221q0 -52 -8.5 -98.5t-18.5 -67.5q-84 -11 -129 -40t-66 -70h-42q0 57 20 105.5t55 84.5t83.5 58.5t105.5 27.5zM822 693q0 -11 -10 -19.5t-32 -8.5h-721q-20 0 -37.5 8.5
t-17.5 19.5v13q0 22 17.5 32t37.5 10h721q42 0 42 -42v-13zM822 -208q0 -42 -42 -42h-721q-20 0 -37.5 10t-17.5 32v13q0 11 17.5 19.5t37.5 8.5h721q22 0 32 -8.5t10 -19.5v-13z" />
    <glyph glyph-name="B" unicode="B" 
d="M519 249l-519 -404v809zM1020 249l520 -404v809zM1540 750l-770 -617l-770 617h1540zM1540 -251l-578 443l-192 -155l-192 155l-578 -443h1540z" />
    <glyph glyph-name="C" unicode="C" 
d="M1194 557l-134 -104l-120 -89v89h-702v-165l-104 -74l-90 -76v508h896v105l120 -105zM0 -56l253 194v-102h703v178l104 74l89 76v-509h-896v-104l-119 104z" />
    <glyph glyph-name="D" unicode="D" 
d="M831 -220q0 -12 -11 -21.5t-35 -9.5h-385q-12 0 -21.5 9.5t-9.5 21.5v308q0 22 9.5 33.5t21.5 11.5h385q46 0 46 -45v-308zM908 226q0 -12 -11.5 -21t-35.5 -9h-461q-12 0 -21.5 9t-9.5 21v155q0 11 9.5 20t21.5 9h461q24 0 35.5 -9t11.5 -20v-155zM293 -220
q0 -12 -12 -21.5t-34 -9.5h-139q-12 0 -21.5 9.5t-9.5 21.5v308q0 22 9.5 33.5t21.5 11.5h139q46 0 46 -45v-308zM293 226q0 -12 -12 -21t-34 -9h-216q-12 0 -21.5 9t-9.5 21v155q0 11 9.5 20t21.5 9h216q22 0 34 -9t12 -20v-155zM800 642q0 -29 -22.5 -58.5t-67.5 -54.5
t-111 -40.5t-152 -15.5q-92 0 -162 13.5t-116 36.5t-69 53t-23 66q0 23 11 42.5t28 34t39 22.5t45 8q47 0 85 -17.5t68 -43.5t53 -56t41 -52q12 22 34 52t52.5 56t67 43.5t76.5 17.5q36 0 68 -13.5t55 -47.5v-46zM200 594q12 -5 29.5 -12.5t40.5 -15.5t52 -12.5t62 -4.5
q-16 23 -36.5 47.5t-44 45t-49.5 33.5t-54 13q-45 0 -45 -46q0 -24 45 -48zM724 626q5 6 8.5 11t4.5 9q3 6 3 11q-12 11 -25.5 21t-37.5 10q-28 0 -54.5 -13t-48 -33.5t-38 -45t-28.5 -47.5q104 13 154.5 33t61.5 44z" />
    <glyph glyph-name="E" unicode="E" 
d="M1028 750q12 0 20.5 -9.5t8.5 -19.5v-938q0 -12 -8.5 -21.5t-20.5 -9.5h-998q-10 0 -19.5 9.5t-9.5 21.5v938q0 10 9.5 19.5t19.5 9.5h998zM397 310h249v367h-249v-367zM323 16h-263v-174q0 -12 9 -14t21 -2h233v190zM323 369h-263v-278h263v278zM323 677h-233
q-12 0 -21 -2t-9 -14v-219h263v235zM646 -174v395h-249v-395h249zM999 16h-264v-190h233q12 0 21.5 2t9.5 14v174zM999 369h-264v-278h264v278zM999 661q0 12 -9.5 14t-21.5 2h-233v-235h264v219zM572 91q0 -34 -10 -46.5t-34 -12.5q-31 0 -44.5 12.5t-13.5 46.5
q0 22 13.5 39.5t44.5 17.5q24 0 34 -17.5t10 -39.5zM426 -86q5 21 12 42t17.5 38.5t28.5 27.5t44 10q23 0 39.5 -10t28 -27.5t17 -38.5t5.5 -42h-192zM909 281q0 -24 -10.5 -42t-31.5 -18q-22 0 -40.5 18t-18.5 42q0 23 18.5 33.5t40.5 10.5q42 0 42 -44zM779 133
q11 44 27.5 66t60.5 22q42 0 59.5 -22t28.5 -66h-176zM221 603q0 -43 -44 -43q-7 0 -14 3t-14 8.5t-11.5 13.5t-4.5 18q0 11 4.5 19t11.5 13.5t14 8t14 2.5q44 0 44 -43zM105 472q9 42 24 65t48 23q44 0 60.5 -23t27.5 -65h-160z" />
    <glyph glyph-name="F" unicode="F" 
d="M950 654q0 -24 -9 -42t-22 -30.5t-30.5 -18.5t-35.5 -6q-97 0 -97 97q0 19 6 36t17.5 30.5t30.5 22t43 8.5q18 0 35.5 -8.5t30.5 -22t22 -30.5t9 -36zM950 509h-147v-32v-273q0 -5 -2.5 -13.5t-8.5 -16t-15 -13t-21 -5.5v-322q0 -6 5 -14.5t12.5 -16t16 -13t13.5 -5.5h82
q12 0 21 5.5t15 13t8.5 16t2.5 14.5v322v16h18q24 0 44 14t20 50v208q0 37 -20 51t-44 14zM1159 654q0 -97 -96 -97q-19 0 -36 6t-30.5 18.5t-22 30.5t-8.5 42q0 19 8.5 36t22 30.5t30.5 22t36 8.5q24 0 42 -8.5t30 -22t18 -30.5t6 -36zM1175 509h-161q12 0 14 -10t2 -22
v-273q0 -5 -3 -13.5t-9 -16t-15 -13t-21 -5.5v-322q0 -6 5 -14.5t12.5 -16t16 -13t14.5 -5.5h81q5 0 13 5.5t16 13t13.5 16t5.5 14.5v322v16h16q25 0 37 14t12 50v208q0 37 -12 51t-37 14zM483 654q0 -24 -8 -42t-22 -30.5t-31.5 -18.5t-34.5 -6q-19 0 -36 6t-30.5 18.5
t-22 30.5t-8.5 42q0 19 8.5 36t22 30.5t30.5 22t36 8.5q17 0 34.5 -8.5t31.5 -22t22 -30.5t8 -36zM419 220v257q0 12 2 22t14 10h-145q-24 0 -44 -14t-20 -51v-208q0 -36 20 -50t44 -14h17v-16v-322q0 -6 3 -14.5t9 -16t15 -13t21 -5.5h64q12 0 21.5 5.5t15.5 13t8.5 16
t2.5 14.5v322q-24 0 -36 20t-12 44zM258 654q0 -97 -97 -97q-19 0 -36 6t-30.5 18.5t-21.5 30.5t-8 42q0 19 8 36t21.5 30.5t30.5 22t36 8.5q24 0 42.5 -8.5t30.5 -22t18 -30.5t6 -36zM210 220v257v32h-145q-25 0 -45 -14t-20 -51v-208q0 -36 20 -50t45 -14h16v-16v-322
q0 -6 4.5 -14.5t12.5 -16t16 -13t15 -5.5h81q5 0 13 5.5t15.5 13t13.5 16t6 14.5v322q-24 0 -36 20t-12 44zM611 557q25 0 43 8.5t30 22t18 31.5t6 35q0 19 -6 36t-18 30.5t-30 22t-43 8.5q-18 0 -35 -8.5t-31 -22t-22 -30.5t-8 -36q0 -17 8 -35t22 -31.5t31 -22t35 -8.5z
M787 477q0 7 -1.5 12t-5.5 11q-4 5 -8 9q-12 12 -24 14t-24 2h-225q-12 0 -22 -2t-10 -14q-12 0 -14 -10t-2 -22v-257q0 -48 48 -48h32v-16v-371q0 -12 12 -22t36 -10h81q12 0 22 10t10 22v371v16h16h16h16q6 0 14 3t15.5 9.5t12.5 15t5 20.5v257z" />
    <glyph glyph-name="G" unicode="G" 
d="M1141 738q13 12 23 2t10 -34q0 -3 -7.5 -37.5t-20 -89t-28.5 -123.5t-33.5 -141.5t-34 -142.5t-30.5 -126.5t-24 -93t-13 -43.5q0 -13 -12.5 -21t-35.5 4q-2 4 -18 12.5t-39 22t-51 29.5t-57 32q-68 38 -152 80l-82 32q162 160 286 288q53 54 103 104.5t89 91.5t61 65.5
t19 24.5q0 -3 -30 -27t-79.5 -60t-112.5 -81.5t-128 -91.5q-154 -111 -350 -250l-143 48l-239 95q-12 12 -12 22.5t12 10.5q5 3 55 21.5t129.5 46.5t178.5 64.5t202 72.5t201.5 70.5t177.5 61t129 44t56 17.5zM394 100l256 -111l-240 -238q-12 0 -14 2t-2 14v333z" />
    <glyph glyph-name="H" unicode="H" 
d="M783 288v-537h-783v537h783zM564 113l-42 44l-175 -174l-71 72l-44 -41l115 -132zM232 361h-118v116q4 76 35 137q13 25 32.5 49.5t49 44t68.5 31.5t91 12q53 0 92.5 -12t68.5 -31.5t49 -44t32 -49.5q31 -61 35 -137v-116h-116v116q0 6 -0.5 21t-5.5 33t-14 36.5t-27 33
t-45.5 25.5t-68.5 11q-40 0 -66 -11t-42.5 -25.5t-25 -33t-12.5 -36.5t-7 -33t-5 -21v-116z" />
    <glyph glyph-name="I" unicode="I" 
d="M444 -66h-204q-35 0 -53.5 9.5t-27 23.5t-10 30.5t-1.5 31.5v36q-21 26 -38 51.5t-29 52t-18.5 54.5t-6.5 64q0 62 22.5 110t60.5 81.5t88 50t106 16.5q49 0 99 -14.5t90 -45.5t64.5 -80.5t24.5 -117.5q0 -36 -6.5 -64t-18.5 -54.5t-29 -52t-38 -51.5q-27 -27 -56 0
q-13 0 -13 11t13 26q21 28 36 50t23 42.5t12 42.5t4 50q0 56 -19 95t-48 63.5t-66 35.5t-72 11q-41 0 -81 -14t-71.5 -40.5t-50 -64.5t-18.5 -86q0 -28 4 -50t14 -42.5t28 -42.5t46 -50q13 -15 16 -37.5t3 -35.5v-20h17h204q14 0 26.5 -11.5t12.5 -24.5q0 -14 -12.5 -26.5
t-26.5 -12.5zM260 138h-20q-35 41 -47 82t-10 78t14 67t26 52q6 0 13 2.5t14 4.5t14.5 1t14.5 -8q25 -30 0 -56q-20 -27 -28 -55q-3 -12 -4.5 -26t0.5 -28.5t10 -29.5t22 -28q26 -27 0 -56h-19zM444 -158h-221q-14 0 -26 11.5t-12 25.5t12 16.5t26 2.5h221q14 0 26.5 -2.5
t12.5 -16.5t-12.5 -25.5t-26.5 -11.5zM427 -250h-187q-13 0 -24.5 11.5t-11.5 24.5q0 15 11.5 17.5t24.5 2.5h187q13 0 24.5 -2.5t11.5 -17.5q0 -13 -11.5 -24.5t-24.5 -11.5zM333 601q-14 0 -25.5 12t-11.5 27v73q0 15 11.5 25.5t25.5 10.5t26 -10.5t12 -25.5v-73
q0 -15 -12 -27t-26 -12zM93 509h-37l-56 75v36q29 29 56 0l56 -55q24 -29 0 -56h-19zM575 509h-19q-26 27 0 56l55 55q29 29 56 0v-36l-56 -75h-36z" />
    <glyph glyph-name="J" unicode="J" 
d="M1239 750q6 -7 13.5 -17t7.5 -28v-759l-21 -23h-23h-21q-82 42 -172.5 74t-194 56.5t-223.5 41t-260 23.5q-14 0 -27 13.5t-13 30.5v348q0 17 13 20t27 3q140 8 260 24t223.5 42t194 64t172.5 87h44zM216 533q16 0 20 -3t4 -20v-348q0 -17 -4 -30.5t-20 -13.5
q-41 0 -80 15.5t-69 44t-48.5 68.5t-18.5 91q0 40 18.5 76t48.5 62t69 42t80 16zM544 -186v-20q0 -17 -14.5 -30.5t-30.5 -13.5h-66q-16 0 -30 2t-14 18l-84 237q0 8 3 16q0 6 4 13t13 17h20h88q16 0 30 -2t14 -20z" />
    <glyph glyph-name="K" unicode="K" 
d="M534 746h1080q31 0 47 -27t16 -56v-65q0 -63 -63 -63h-1080q-63 0 -63 63v65q0 29 16 56t47 27zM70 746h210q6 0 17.5 -7.5t21 -19.5t16.5 -27t7 -29v-65q0 -16 -7 -28t-16.5 -20.5t-21 -11.5t-17.5 -3h-210q-65 0 -65 63v65q0 29 16 56t49 27zM534 343h1080q63 0 63 -62
v-63q0 -16 -4 -31.5t-12 -27.5t-20 -20t-27 -8h-1080q-15 0 -27 8t-20 20t-12 27.5t-4 31.5v63q0 62 63 62zM534 -59h1080q63 0 63 -63v-62q0 -65 -63 -65h-1080q-63 0 -63 65v62q0 63 63 63zM70 343h210q6 0 17.5 -4t21 -10.5t16.5 -18.5t7 -29v-63q0 -16 -7 -31.5
t-16.5 -27.5t-21 -20t-17.5 -8h-210q-17 0 -29 8t-20 20t-12 27.5t-4 31.5v63q0 62 65 62zM70 -59h210q6 0 17.5 -4t21 -12t16.5 -19.5t7 -27.5v-62q0 -17 -7 -29t-16.5 -20t-21 -12t-17.5 -4h-210q-65 0 -65 65v62q0 63 65 63z" />
    <glyph glyph-name="L" unicode="L" 
d="M956 -113q11 -19 11 -31t-11 -31q-12 -16 -38.5 -27t-64 -20t-82.5 -13.5t-93 -8.5t-98 -4.5t-97 -0.5q-70 0 -146 2.5t-142.5 10.5t-116.5 22.5t-69 38.5q-9 19 -9 31t9 31q14 43 34.5 69.5t44 42.5t48 24t49.5 12h12q4 34 6.5 79t4 89t1.5 83.5v63.5q-8 17 -7 42t20 45
q-9 64 6 115.5t41.5 89t58.5 61t55 32.5h13q17 9 36 10.5t39 1.5h12h13q18 0 31 -1.5t32 -10.5q9 5 19 5t20 -1q11 -1 21 -4q43 -19 72 -45t45.5 -56t25 -62t11.5 -62q4 -69 -16 -148v-12q-3 -72 1 -134q3 -27 6.5 -53.5t8.5 -50.5t13 -44.5t21 -32.5q18 -4 39 -13t40 -26.5
t38 -44.5t32 -64zM258 399q-9 0 -9 -10.5t9 -38.5q0 -11 2 -19.5t10 -18.5l12 -13q0 -9 7 -11q3 -2 7 -1q4 -17 12 -39q6 -17 18 -40.5t32 -46.5q10 -9 21.5 -20t26.5 -20t34 -16t43 -7q28 0 58 13t66 50q20 23 30 46.5t14 40.5q6 22 7 39q5 0 11 1.5t13.5 7.5t14.5 18
t11 36v37q0 6 -2 7t-4 3l-7 2v12l-12 -49v63q-14 13 -25.5 30.5t-21 34t-17.5 32.5l-12 24q-8 -8 -26.5 -25t-46.5 -33q-30 -21 -73.5 -44t-90.5 -33q-9 0 -24.5 -1t-24.5 -11l-13 -75l-12 75h-38zM483 -201q84 0 165 5t142.5 14.5t97.5 23.5t31 33q-15 33 -33 54.5
t-37.5 34.5t-40 18t-39.5 5q-13 4 -38 11t-51 15t-47.5 17t-25.5 19v49q-36 -28 -66 -38.5t-58 -10.5h-12q-30 0 -57 15.5t-56 33.5v-49q-4 -10 -25 -19t-48 -17t-54.5 -15t-45.5 -11q-15 0 -33 -5t-36 -18t-36 -34.5t-35 -54.5q-4 -19 32.5 -33t99 -23.5t142.5 -14.5
t164 -5z" />
    <glyph glyph-name="M" unicode="M" 
d="M1297 112q12 -13 18.5 -28.5t6.5 -30t-6.5 -26.5t-18.5 -19q-14 -13 -29 -19t-29 -6t-27 6t-19 19l-138 120l-139 -120q-12 -13 -28 -19t-30 -6t-26 6t-20 19q-12 7 -18.5 19t-6.5 26.5t6.5 30t18.5 28.5l122 139l-122 120q-25 25 -25 60t25 60q8 13 20 20t26 7t30 -7
t28 -20l139 -137l138 137q6 13 19 20t27 7t29 -7t29 -20q25 -25 25 -60t-25 -60l-139 -120zM329 439l311 311v-1001l-311 294h-327v396h327z" />
    <glyph glyph-name="N" unicode="N" 
d="M86 493h657v-743h-657v743zM552 -129h54v484h-54v-484zM381 -129h69v484h-69v-484zM225 -129h52v484h-52v-484zM1 577q0 41 24 65t61 24h191v85h275v-85h191q39 0 62.5 -24t23.5 -65h-173h-655z" />
    <glyph glyph-name="O" unicode="O" 
d="M1000 438v-376l-312 -312h-376l-312 312v376l312 312h376zM612 591q0 12 -8 18t-19 6t-19.5 -6t-8.5 -18v-284h-32v288q0 14 -8.5 20.5t-19 6t-18.5 -7.5t-8 -19v-288h-32v248q0 14 -9 20.5t-19 6.5t-18.5 -6.5t-8.5 -20.5v-248h-32v187q0 11 -8 18t-19 7q-10 0 -19 -8
t-7 -17v-376q0 -186 188 -186q46 0 90.5 12.5t79.5 42t57 77.5t22 117v250q-19 0 -32 -12q-11 -12 -21 -38t-9 -75q0 -24 -1 -46.5t-7 -40t-18 -28t-36 -10.5v188v222z" />
    <glyph glyph-name="P" unicode="P" 
d="M327 439l310 311v-1000l-310 295h-327v394h327z" />
    <glyph glyph-name="Q" unicode="Q" 
d="M803 178q-14 0 -24.5 -11t-10.5 -24q0 -14 10.5 -24.5t24.5 -10.5h73v-107h-73q-14 0 -24.5 -11.5t-10.5 -24.5q0 -14 10.5 -25t24.5 -11h73v-144q0 -13 -11 -24t-24 -11h-806q-13 0 -24 11t-11 24v144h607q14 0 25.5 11t11.5 25q0 13 -11.5 24.5t-25.5 11.5h-607v107
h607q14 0 25.5 10.5t11.5 24.5q0 13 -11.5 24t-25.5 11h-607v144q0 14 11 24.5t24 10.5h144v143q0 54 19 99.5t52.5 79t79 52.5t98.5 19q54 0 102.5 -19t85.5 -52.5t58.5 -79t21.5 -99.5v-143h145q13 0 24 -10.5t11 -24.5v-144h-73zM625 500q0 40 -15.5 73.5t-42 57
t-62.5 36.5t-77 13q-33 0 -65 -13t-57 -36.5t-40 -57t-15 -73.5v-143h374v143z" />
    <glyph glyph-name="R" unicode="R" 
d="M839 -143l58 63l109 -102l-62 -64zM500 749q105 0 196.5 -40.5t158.5 -109t105.5 -159t38.5 -190.5q0 -105 -38.5 -196t-105.5 -158t-158.5 -105.5t-196.5 -38.5t-196 38.5t-158 105.5t-105.5 158t-38.5 196q0 100 38.5 190.5t105.5 159t158 109t196 40.5zM500 669
q-89 0 -165 -34.5t-132.5 -92t-88.5 -133.5t-32 -159q0 -89 32 -165t88.5 -132t132.5 -88t165 -32t165.5 32t132.5 88t88 132t32 165q0 83 -32 159t-88 133.5t-132.5 92t-165.5 34.5zM498 466l-59 -120l-142 -27q25 -23 50 -49t48 -47l-18 -139l123 70l119 -69
q-7 36 -13.5 69.5t-11.5 68.5l104 96l-139 27zM601 400l233 -45l-172 -157q5 -25 10.5 -56t11 -62.5t10.5 -61.5t9 -53l-203 115l-201 -114l27 232q-17 18 -37.5 39t-42 42.5t-42.5 41.5t-37 35l232 44l101 205z" />
    <glyph glyph-name="S" unicode="S" 
d="M0 750h180l320 -317l319 317h181v-182l-319 -318l318 -319v-181h-181l-318 317l-320 -317h-180v181l316 319l-316 318v182z" />
    <glyph glyph-name="T" unicode="T" 
d="M682 572q27 0 52 -12.5t44.5 -34t31.5 -51.5t12 -66q0 -26 -12 -51t-31.5 -44.5t-44.5 -31.5t-52 -12q-35 0 -63 13t-48 33.5t-31 46t-11 51.5q0 72 41.5 115.5t111.5 43.5zM707 354h-57v-57h57v57zM707 550h-57v-56l14 -123h27l16 123v56zM500 750q108 0 200 -37.5
t158.5 -104t104 -158.5t37.5 -200q0 -99 -37.5 -189.5t-104 -159.5t-158.5 -110t-200 -41q-99 0 -189.5 41t-159.5 110t-110 159.5t-41 189.5q0 108 41 200t110 158.5t159.5 104t189.5 37.5zM816 277q19 19 35.5 55t16.5 75q0 49 -14 88.5t-38.5 66.5t-58.5 41.5t-73 14.5
q-79 0 -135 -36t-76 -96h-210q-10 0 -19 -5t-13.5 -14.5t-4 -24.5t10.5 -35l210 -184q10 -10 24 -15t29 -5t29 5t23 15q19 16 29.5 24t15.5 12q1 1 8.5 -3t15.5 -9t15 -9.5t8 -3.5l-92 -89q-10 -10 -24 -15t-28.5 -5t-28.5 5t-24 15l-210 184q-10 20 -19.5 25.5t-17 0.5
t-12 -19t-4.5 -34v-184q0 -20 8.5 -38.5t21 -33.5t26 -24t23.5 -9h473q20 0 35 9t25 24t15 33.5t5 38.5v159z" />
    <glyph glyph-name="U" unicode="U" 
d="M860 653v-49q0 -11 -11 -13t-23 -2q-11 0 -21 2t-10 13v49h31h34zM745 670q-12 0 -14 9t-2 22v18q0 12 2 21.5t14 9.5h161l8 -10l6 -10t3 -11v-18q0 -7 -3 -12l-6 -10q-4 -5 -8 -9h-161zM875 604q79 -12 146.5 -49t117.5 -93t78.5 -126.5t28.5 -148.5q0 -91 -33.5 -170.5
t-91 -139t-134 -93.5t-161.5 -34q-90 0 -169.5 34t-139 93.5t-94 139t-34.5 170.5q0 78 28.5 148.5t79 126.5t119 93t148.5 49q0 -11 13.5 -21t48.5 -10q26 0 37.5 10t11.5 21zM826 -170q66 0 127.5 28t109 76.5t75.5 113.5t28 139q0 66 -28 127t-75.5 107.5t-109 74
t-127.5 27.5q-73 0 -135 -27.5t-107.5 -74t-71.5 -107.5t-26 -127q0 -74 26 -139t71.5 -113.5t107.5 -76.5t135 -28zM842 218q14 0 23.5 -12.5t9.5 -38.5q0 -6 -5.5 -11.5t-13 -10t-16 -7t-14.5 -2.5q-23 0 -34.5 10t-11.5 21q0 26 9.5 38.5t21.5 12.5v243h31v-243zM941 315
l31 -31l-81 -66l-16 15h-15zM3 187q0 23 10 27t21 4h274q14 0 24.5 -4t10.5 -27q0 -15 -10.5 -17.5t-24.5 -2.5h-274q-11 0 -21 2.5t-10 17.5zM197 507q0 12 9.5 23.5t23.5 11.5h193q13 0 22.5 -11.5t9.5 -23.5q0 -11 -9.5 -21t-22.5 -10h-193q-14 0 -23.5 10t-9.5 21z
M197 -122q0 11 9.5 23t23.5 12h193q13 0 22.5 -12t9.5 -23q0 -12 -9.5 -21.5t-22.5 -9.5h-193q-14 0 -23.5 9.5t-9.5 21.5zM83 41q0 11 10.5 21t21.5 10h228q11 0 21 -10t10 -21q0 -13 -10 -22t-21 -9h-228q-11 0 -21.5 9t-10.5 22zM83 346q0 14 10.5 23.5t21.5 9.5h228
q11 0 21 -9.5t10 -23.5q0 -12 -10 -21.5t-21 -9.5h-228q-11 0 -21.5 9.5t-10.5 21.5z" />
    <glyph glyph-name="V" unicode="V" 
d="M697 750q40 0 66 -26.5t26 -65.5v-816q0 -39 -26 -65.5t-66 -26.5h-618q-15 0 -29 7t-25 19.5t-18 29t-7 36.5v816q0 19 7 36t18 29.5t25 19.5t29 7h618zM775 658q0 15 -4.5 29t-14.5 25t-24.5 18t-34.5 7h-618q-15 0 -27 -7t-20.5 -18t-13.5 -25t-5 -29v-816
q0 -39 18.5 -59t47.5 -20h618q78 0 78 79v816zM329 302q-20 0 -31.5 8.5t-20.5 18.5q-11 0 -11 8t11 17q0 21 39 40q4 3 8 7q4 2 8.5 4.5t9.5 2.5q10 0 13.5 6.5t12.5 6.5q0 9 -6 12t-6 14q-20 20 -23.5 39.5t-3.5 38.5q0 20 16.5 38.5t35.5 28.5h13q20 0 31.5 -8t21.5 -18
q10 -11 11.5 -27.5t1.5 -26.5q0 -19 -1.5 -30.5t-11.5 -21.5q0 -4 -2 -7q-4 -6 -11 -6q0 -5 -2 -8t-4.5 -5.5t-4.5 -5.5t-2 -7q10 -10 19.5 -11.5t19.5 -1.5v-14q5 0 14 -2.5t17.5 -7.5t15 -12.5t6.5 -17.5l4 -8q1 -4 1 -8t-5 -9q-5 -10 -16.5 -15.5t-28 -8t-35.5 -3
t-39 -0.5h-65zM631 144q10 0 18.5 -8t8.5 -18q0 -9 -8.5 -17.5t-18.5 -8.5h-473q-11 0 -19 8.5t-8 17.5q0 10 8 18t19 8h473zM631 39q10 0 18.5 -1.5t8.5 -10.5q0 -11 -8.5 -19t-18.5 -8h-473q-11 0 -19 8t-8 19q0 9 8 10.5t19 1.5h473zM631 -52q10 0 18.5 -1.5t8.5 -12.5
q0 -10 -8.5 -18t-18.5 -8h-473q-11 0 -19 8t-8 18q0 11 8 12.5t19 1.5h473z" />
    <glyph glyph-name="W" unicode="W" 
d="M526 748q1 1 1 2q1 -1 1 -2q0 -2 1 -4q3 -3 3 -6v-1q0 -1 0.5 -1.5t0.5 -1.5q1 -1 1.5 -2.5t1.5 -2.5q0 -1 1 -3l3 -6q1 -2 1 -3.5t1 -3.5q0 -2 1 -3h1l2 -4q2 -6 3 -10q2 -5 4.5 -10.5t2.5 -8.5q1 -1 1 -1.5t1 -1.5q0 -1 1 -2q1 0 1 -1q0 -2 1 -2q0 -2 2 -6.5t4 -10
t4 -10t2 -5.5q1 -1 3 -8q3 -5 3 -7q1 -1 3 -7t11 -26q5 -11 7 -16.5t3 -7.5l1 -3q0 -4 2 -4q0 -1 1 -3.5t1 -5.5q8 -16 12 -26.5t5 -12.5q1 0 1 -1q0 -2 1 -3q0 -4 3 -8q0 -2 0.5 -3t0.5 -2t1 -2t3 -5.5t4 -9.5l2 -6t2 -5q1 -3 2 -4l1 -1q-1 0 0.5 -4t2.5 -6q2 -2 2 -6
q1 -1 1.5 -3.5t2.5 -4.5q0 -1 0.5 -2t0.5 -2t1 -2v-1l1 -1q1 -1 1 -2t1 -2l2 -6l1 -1q0 -1 1 -2q0 -1 2 -5q1 -3 5 -4h4h2q3 0 3 -1h3h4h2h4q1 0 3 -1h3h3q2 0 3.5 -0.5t3.5 -0.5q1 0 4 -0.5t5 -0.5h1l2 -1h6q2 0 3.5 -0.5t2.5 -0.5h6h3q2 0 4 -1h2h3q3 0 4 -1h4q4 -1 8 -1
q2 0 3 -0.5t3 -0.5h3h3h4h1l1 -1h4h2q4 -1 8 -1t5 -1h4l2 -1h3h3q3 0 4 -1h3h3h2h4q1 -1 2 -1h4q4 0 6 -1h7l2 -1h3q3 0 4 -1h3q3 0 6 -1h6h3h3q3 0 4 -1h3h2q3 -1 13.5 -2t12.5 -1q1 -1 2 -1h4h6h3q5 -1 10 -1.5t6 -0.5h2q3 0 3 -1h4q2 0 3 -0.5t2 -0.5h4h3h3h4q1 -1 4 -1
h1q2 0 3 -0.5t2 -0.5q5 0 8 -1h5h4q1 0 5 -0.5t8.5 -1t8 -0.5h3.5q1 -1 3 -1t2.5 -0.5t2.5 -0.5q6 0 7 -1h4h3q1 0 1.5 -0.5t1.5 -0.5h1l-3 -3q-1 -1 -3 -2l-1 -1q-1 0 -1 -1t-1 -1t-11 -8q0 -1 -1 -2t-2.5 -1.5t-1.5 -1.5q-1 -1 -2 -1t-1 -1l-2 -2l-2 -1l-1 -1q-2 -2 -2 -3
q-4 -3 -5 -3.5l-3 -1.5q0 -3 -2 -3q-1 -1 -2 -1l-2 -2l-3 -3l-2 -1l-1 -2q-1 -1 -2 -1h-1q0 -1 -0.5 -1t-0.5 -1q-1 -1 -1.5 -1t-1.5 -1l-1 -1q-2 0 -2 -2l-2 -1q-1 -1 -1 -2h-1h-1l-1 -2q-1 -1 -2 -1v-1l-2 -1q-2 0 -2 -2q1 0 -5 -3q0 -1 -10 -9l-3 -3q-2 -2 -4 -3
q-1 -1 -1.5 -2t-1.5 -2q-2 0 -3 -1l-1 -1l-3 -3l-2 -2l-1 -1q0 -1 -1 -1h-2q-1 -1 -1 -2l-1 -1q-1 0 -1 -0.5t-1 -0.5l-2 -2l-1 -1q-2 -2 -3 -2q0 -1 -1 -1t-3 -2l-6 -6l-2 -1l-3 -3l-2 -2l-2 -1l-3 -3q-2 -1 -3 -3q-4 -3 -6 -5q-5 -4 -6 -5q-1 0 -1 -2h-3q-2 -4 -2 -3
l-2 -2q-1 0 -1.5 -0.5t-1.5 -0.5v-1l-3 -3q-2 0 -2 -1l-2 -2q-1 -1 -2 -1l-3 -3l-2 -2t-5 -4l-2 -1l-2 -2l-2 -2q-2 -1 -3.5 -2.5t-4.5 -3.5q0 -2 -5 -4q-1 -1 -1 -2t-1 -1t-2 -1l-2 -2q-6 -4 -5 -4l-2 -1l-1 -1l-1 -2q-1 -1 -2 -1t-2 -1q0 -1 -1 -2l-2 -1q-1 -1 -2 -1v-1
l-2 -2q-1 -1 -2 -1h-1l-1 -2l-3 -3q-1 0 -2 -1l-3 -3q-1 -1 -1.5 -1t-1.5 -1l-1 -1l-2 -2q-2 0 -5 -5q-2 0 -3 -1q0 -2 -2 -2l-5 -5q-1 -1 -2 -1t-1 -1l-5 -5q-1 0 -3 -2q-1 0 -2 -1v-1v-2q0 -4 1 -5q0 -2 0.5 -3t0.5 -2t1 -2q0 -2 1 -5q1 -2 1 -5.5t1 -6.5q2 -7 3 -12t1 -7
q1 -2 1.5 -5.5t2.5 -8.5q1 -5 1.5 -9t1.5 -6t1 -6q1 -1 3 -12t4 -20q0 -2 0.5 -2.5t0.5 -2.5q1 0 1 -1q0 -3 1 -4q0 -2 0.5 -3.5t0.5 -2.5t1 -7t2 -8q0 -2 1 -4q0 -2 2 -10v-3q0 -2 0.5 -2.5t0.5 -1.5q2 -4 2 -8q1 -1 2 -6t3 -13q1 -7 2 -11.5t1 -5.5t1 -5.5t1 -5.5
q0 -3 2 -5v-4q0 -1 1 -1q0 -1 1 -4t1 -4q0 -2 1 -7t1 -6v-1q0 -1 0.5 -1t0.5 -1q2 -8 2 -7v-4q0 -4 2 -10q2 -5 2.5 -10t1.5 -7v-2q0 -1 1 -2q0 -2 0.5 -2.5t0.5 -1.5v-1v-1q0 -1 0.5 -2t0.5 -2q0 -6 2 -8q0 -1 0.5 -2t0.5 -2q0 -2 1 -6.5t2 -9.5q1 -2 1.5 -5t1.5 -5
q0 -4 1 -5l4 -22v-3q0 -1 1 -1q-1 0 -5 2.5t-16 9.5q-1 2 -2 2.5t-2 1.5t-3 1q-1 0 -2 1t-9 6q-5 3 -13.5 8.5t-10.5 7.5q-1 0 -18 10q-2 2 -4 3l-4 2q-12 7 -12 8q-1 0 -2 1t-3 2t-4 3h-2q-1 1 -2 1v1q-5 3 -9 6l-7 3.5t-4 2.5q-1 0 -1.5 0.5t-1.5 0.5q-3 3 -6 4l-6 4t-8 6
q-1 0 -1.5 0.5t-1.5 0.5l-1 1q-1 0 -3 2q-1 0 -2 1t-3 2l-4 2q-2 1 -6.5 4t-16.5 10q-2 2 -5 3.5t-5 3.5q-2 0 -4 2l-1 1h-1l-6 4q-2 2 -4.5 3.5t-4.5 2.5t-5.5 3t-4.5 3t-3.5 2.5t-5.5 3.5q-2 2 -5.5 3.5t-5.5 2.5q-1 1 -3 2.5t-3 2.5q-6 3 -13.5 7.5t-9.5 6.5q-1 0 -2 1
h-1l-2 1q0 1 -5 4q-2 1 -4.5 2.5t-5.5 3.5q-7 5 -9 5q0 -1 -1 -1t-2 -0.5t-2 -0.5q-5 -3 -5 -4q-1 0 -9 -5q-3 -1 -5 -2.5t-3 -1.5q-1 -1 -4 -2.5l-7 -3.5q-9 -7 -11 -7q0 -2 -8 -4q-2 -2 -4 -3t-3 -2l-6 -3t-4 -3q-1 -1 -3.5 -2.5t-5.5 -3.5q-6 -2 -7 -3q-2 -2 -3 -2t-2 -1
t-3 -2q-4 -2 -5 -2l-2 -2q-1 -1 -5 -3q-6 -3 -8 -5q-1 0 -2 -1q-1 0 -1.5 -0.5t-1.5 -0.5q-1 -1 -4 -2.5t-7 -4.5q-5 -3 -10 -5.5t-7 -4.5q-1 -1 -1.5 -1t-1.5 -1t-2 -1h-1l-9 -5q-8 -4 -8 -6q-2 0 -8 -4l-9 -6q-2 0 -3 -1t-3 -2q-4 -1 -4 -2q-1 0 -7 -4t-7 -5q-3 0 -4 -2
q-2 -1 -3 -1t-1 -1t-1 -1h-1q-1 0 -1 -0.5t-1 -0.5q-1 -1 -2 -1t-1 -1l-2 -1l-1 -1q-6 -4 -12 -7l-8 -4q0 -1 -1 -1l-1 -1q-1 0 -1 -0.5t-1 -0.5t-2 -1h-1q-1 0 -1 -0.5t-1 -0.5q0 -1 -2 -2l-4 -2l-4 -2l-1 -1q-1 0 -4.5 -2.5t-8.5 -4.5q-5 -5 -5 -4q-3 -2 -5 -3t-9 -5
q-5 -2 -6 -3t-3 -2h-1q-2 0 -2 -2q-2 -1 -5.5 -2.5t-10.5 -5.5l-2 -2v1q0 1 1 2q0 3 7 30q1 3 2 8.5t3 10.5q1 5 2 9t1 6q0 3 2 7q1 2 1 5q0 1 1 2q0 1 0.5 2t0.5 3t0.5 3.5t0.5 2.5t1 2q0 1 1 5.5t2 9.5q2 6 3.5 13.5t3.5 12.5t3.5 12.5t3.5 12.5q1 6 2 10t1 5t1 3q0 1 2 9
q3 9 3 12q1 4 3 10q2 5 3.5 12t3.5 16q1 4 1.5 8t1.5 6q1 3 1 5q0 -1 5 21q0 2 0.5 3.5t0.5 2.5q1 0 1 1q0 2 1 4q2 11 5.5 25t6.5 25q2 8 3 13t2 7v2h-1q0 1 -2 3l-2.5 2.5t-3.5 2.5l-1 1q-1 1 -3 2.5t-3 3.5q-1 1 -2 1.5t-2 1.5l-1 1q-1 0 -2 1l-2 2v1q-2 2 -5 4t-4 4
q-2 2 -3.5 2.5t-2.5 2.5q-2 3 -4 3l-1 2q-1 1 -2.5 2t-4.5 4h-1l-1 2l-2 2q-1 1 -2 1l-5 5l-1 1q-1 0 -3 2q-4 4 -5 4q0 1 -3.5 4t-5.5 4q-1 1 -1 2q-2 2 -3.5 2.5t-4.5 4.5q-2 1 -3 2.5t-2 1.5l-2 2q-3 3 -4 3l-2 2l-3.5 3.5l-3.5 3.5q-1 0 -3 2q-1 1 -2 1l-5 5q0 2 -2 2
q-2 1 -3.5 3t-3.5 3q0 1 -1 1q-2 0 -2 1l-2 2q-2 2 -10.5 9.5t-10.5 9.5l-2 2l-2 2t-3 2q-1 4 -5 4q0 1 -0.5 1t-0.5 1t-2.5 2.5t-4.5 3.5q0 1 -1 1t-1 1l-3 3l-2 2q-1 0 -4 3l-2.5 2.5t-3.5 2.5l-3 3q-1 1 -1 2l-4 2q-1 1 -1.5 2t-1.5 2q-3 1 -3 3q-4 2 -4 3q-2 2 -3 2
t-2 2q0 1 -1 1.5t-1 1.5q-3 0 -3 2q-2 0 -2 2l-1 1h-1q-2 0 -2 2q-2 0 -2 2l-1 1h-1l-2 2l-4 4l-4 4q-3 2 -11 9.5t-10 8.5l-1 1q-1 0 -1 1q-3 3 -4 3l-1 1l-3 3q-2 2 -4 3q-1 3 -4 4q-3 3 -4 3q-1 2 -2 2.5t-2 1.5q0 1 -1 1t-1 1h2q4 0 9 1h4q0 1 4 1h4h4q1 0 1.5 0.5
t1.5 0.5h1h5q1 0 1.5 0.5t1.5 0.5h1h5h4h9h4q1 1 8 1q3 1 13 1q0 1 5 1h4h3t7 1q4 1 6.5 1h4.5h4h4h10q1 1 4 1h4q1 0 1.5 0.5t1.5 0.5h1h5h3q1 1 4 1h5h4q1 0 1.5 0.5t1.5 0.5h2h5h4h8q2 1 4 1h5h4q1 1 4 1h4q5 1 10 1q2 0 4 0.5t4 0.5h4h5q5 1 10 1h6h5q1 1 4 1h5h4
q1 1 4 1h4q0 1 4 1h5h3q1 0 2 0.5t2 0.5h1h5h4q1 1 4 1h5h4h4h4q1 0 1.5 0.5t1.5 0.5h1h4h5q1 1 5 1h4q2 1 9 1.5t9 0.5h3h3l1 1l3 5q0 1 0.5 2t0.5 2q1 2 1 3t1 2q-1 0 2 3q0 1 2 5q2 3 2 4.5t2 4.5v2l1 1v1l1 2l2 2q3 6 5 11t3 8.5t2 4.5v2l1 1q0 1 0.5 1t0.5 1v1l2 2
q0 2 2 8q1 1 1 2t1 2q0 1 1 2v1l2 2q0 1 1 3.5t2 4.5q4 8 5 9q0 1 1 3.5t2 5.5q2 4 3.5 7.5t2.5 5.5t2 4.5t2 4.5l2 5q0 2 2 4q2 4 2 5t1 2v1q0 1 1 3l1.5 3l1.5 3l3 6q1 2 1 3t0.5 1.5t0.5 1.5q1 1 1 1.5t1 1.5q0 1 0.5 1t0.5 1v1l1 1q0 2 3 7t5 11t3 7q0 4 2 4q2 6 3 7.5
t1 3.5q2 2 2 5q2 4 3 5v2h1l1 2q0 2 2 6q1 2 1.5 3.5t1.5 2.5q0 1 0.5 2l2.5 5t2 5t2 5q1 1 1 2t0.5 1.5t0.5 1.5q1 2 1 3l2 2q2 5 3.5 9t2.5 6l1 1v2l2 4l1 2q0 1 1 2t2 4t3 6q1 4 3 8t2 6q2 4 3.5 8t2.5 6q4 5 4 9q1 1 3 5z" />
    <glyph glyph-name="X" unicode="X" 
d="M598 -248h-16q-13 12 -37.5 35t-62.5 48q-50 37 -108.5 76.5t-113 77t-98 70.5t-62.5 58q-50 63 -75 125t-25 125q0 88 27 151.5t89 114.5q50 50 112.5 83t137.5 33q63 0 122.5 -23t109.5 -61q51 38 110.5 61t122.5 23q75 0 137 -33t112 -83q63 -51 90 -114.5t27 -151.5
q0 -148 -100 -250q-25 -25 -69 -60.5t-97 -74.5t-109.5 -77.5t-106.5 -69.5q-38 -25 -62.5 -48t-37.5 -35h-17zM366 715q-63 0 -122.5 -24.5t-109.5 -75.5q-100 -97 -100 -248q0 -63 24.5 -117t75.5 -116q18 -19 58.5 -51t92 -69.5t107.5 -76t106 -69.5q13 -12 28 -24.5
t29 -23t25.5 -20t17.5 -15.5q13 13 37.5 33.5t62.5 33.5q43 37 99 76.5t109 76.5t96 70.5t61 58.5q51 51 75.5 110.5t24.5 122.5q0 149 -100 248q-50 51 -109.5 75.5t-122.5 24.5t-120.5 -22t-95.5 -60h-33q-38 38 -95.5 60t-120.5 22zM350 665q-80 -18 -142 -54
q-27 -16 -52.5 -37t-45.5 -49t-32 -63.5t-12 -78.5q0 -38 2.5 -42t12 15t28 55.5t50 80.5t78 90t113.5 83z" />
    <glyph glyph-name="Y" unicode="Y" 
d="M1091 -250l-195 196q-55 -26 -110 -30.5t-124 -4.5q-134 0 -253.5 34t-209.5 92.5t-143 136.5t-53 166q0 86 53 161t143 130.5t209.5 87t253.5 31.5q135 0 255.5 -31.5t211 -87t143.5 -130.5t53 -161q0 -47 -16 -93t-46.5 -88t-74 -78t-97.5 -63v-268zM915 -17l142 -126
v196q107 54 160.5 123t53.5 164q0 73 -47 141t-129.5 120t-193.5 83t-239 31q-126 0 -236.5 -31t-192.5 -83t-129 -120t-47 -141q0 -81 47 -152.5t129 -125t192.5 -85t236.5 -31.5q69 0 124 11.5t110 25.5h19zM325 214q-20 0 -39.5 9t-34.5 24t-24 34.5t-9 39.5t9 39.5
t24 34.5t34.5 24t39.5 9q27 0 47 -9t33.5 -24t20 -34.5t6.5 -39.5t-6.5 -39.5t-20 -34.5t-33.5 -24t-47 -9zM325 394q-13 0 -23 -6.5t-17 -17t-10.5 -23.5t-3.5 -26q0 -54 54 -54q13 0 25.5 3.5t23 10.5t17 17t6.5 23t-6.5 26t-17 23.5t-23 17t-25.5 6.5zM662 214
q-20 0 -39 9t-34 24t-24.5 34.5t-9.5 39.5t9.5 39.5t24.5 34.5t34 24t39 9q27 0 47.5 -9t34 -24t20 -34.5t6.5 -39.5t-6.5 -39.5t-20 -34.5t-34 -24t-47.5 -9zM662 394q-13 0 -23 -6.5t-16.5 -17t-10 -23.5t-3.5 -26q0 -54 53 -54q29 0 51 14t22 40q0 13 -6 26t-16 23.5
t-23.5 17t-27.5 6.5zM1022 214q-27 0 -47.5 9t-33.5 24t-19.5 34.5t-6.5 39.5t6.5 39.5t19.5 34.5t33.5 24t47.5 9q20 0 39.5 -9t34.5 -24t24 -34.5t9 -39.5t-9 -39.5t-24 -34.5t-34.5 -24t-39.5 -9zM1022 394q-14 0 -27.5 -6.5t-23.5 -17t-16 -23.5t-6 -26q0 -26 22 -40
t51 -14q54 0 54 54q0 13 -3.5 26t-10.5 23.5t-17 17t-23 6.5z" />
    <glyph glyph-name="Z" unicode="Z" 
d="M889 587q11 -9 19 -11q4 -2 8 -1q0 -69 -2 -133q-1 -27 -2 -56t-2 -57t-3 -52.5t-4 -43.5q-10 -66 -34 -122t-57 -102.5t-72 -83.5t-78 -65q-92 -67 -203 -108q-38 13 -79 34q-35 18 -80.5 46.5t-93.5 71.5q-3 0 -6 2l-4 4t-2 7q-19 20 -36 38.5t-28 37.5q-9 0 -10.5 1.5
t-1.5 10.5q-38 48 -65 105t-36 123q-3 19 -4.5 43.5t-3 52.5t-2 57t-1.5 56q-2 64 -2 133q80 20 161 46q34 11 72 25t76 30.5t75.5 35.5t70.5 40q67 -38 139.5 -72.5t138.5 -53.5q3 0 7 -2l4.5 -4.5t2.5 -7.5q38 -9 66 -12t47 -13h25zM877 246q4 28 6.5 70.5t4 86t1.5 83.5
v64q-9 0 -12 6t-13 6h-25q-20 10 -40 13t-48 12q-8 0 -12 6q-2 3 -2 7h-25q-76 29 -140.5 57.5t-112.5 57.5q-57 -29 -126 -64t-164 -64q-48 -9 -84 -18.5t-56 -18.5v-64t1.5 -83.5t4.5 -86t8 -70.5q9 -57 29 -112t58 -103v-12q11 0 12.5 -1.5t1.5 -12.5l76 -76v-12
q19 -10 29.5 -19t20.5 -19q33 -24 63 -40.5t55 -28.5t43.5 -19.5t27.5 -12.5q10 5 28.5 12.5t43 19.5t55 28.5t64.5 40.5q38 38 74 76t64 76q38 48 58.5 103t30.5 112zM813 536q11 0 14 -1.5t12 -10.5h13q0 -57 -2 -112q-2 -47 -4 -96.5t-7 -82.5q-10 -54 -31 -101
t-49.5 -86.5t-62 -72t-66.5 -57.5q-78 -60 -171 -100q-30 12 -63 31q-29 17 -65 43.5t-74 64.5h-12q-19 19 -38 37.5t-38 38.5q0 10 -1.5 11.5t-11.5 1.5q-29 47 -47.5 94t-28.5 95q-5 33 -7.5 82.5t-3.5 96.5q-2 55 -1 112q68 16 138 38q30 9 62.5 21t65.5 26t64.5 31
t60.5 36q24 -19 52 -33.5t57.5 -26.5t59.5 -22t59 -19l13 -13q38 -9 66 -17.5t47 -8.5zM813 511q0 10 -1.5 11.5t-10.5 1.5q-19 0 -44.5 7.5t-44.5 18.5h-25l-12 12q-67 19 -122.5 46t-93.5 56q-47 -39 -105 -67t-134 -47q-24 -10 -45.5 -15.5t-39.5 -9t-32 -6.5t-23 -8
q0 -14 2 -48t4.5 -74.5t4.5 -79.5t2 -63q9 -57 28 -99.5t48 -90.5q5 0 6.5 -2t3.5 -4l2 -6q19 -19 32 -38t32 -38q9 0 10.5 -1.5t1.5 -11.5q10 0 19 -7.5t20 -18.5q28 -19 55.5 -35t50 -27.5t37.5 -18t20 -6.5q20 0 64 24.5t101 62.5q38 29 68 59t59 68q55 74 76 190
q0 24 2 63t4 79.5t4 74.5t2 48h-26zM574 347q19 0 28 -14t9 -24v-38h-304v38q0 10 10 24t29 14h12v38q0 19 7 37t20 32t32 23t42 9q24 0 45 -9t36.5 -23t24.5 -32t9 -37v-38zM523 385q0 9 -4.5 20.5t-13 21t-20 16t-26.5 6.5q-14 0 -25.5 -6.5t-19.5 -16t-12.5 -21
t-4.5 -20.5v-38h126v38zM307 157h304v-25q0 -38 -37 -38h-228q-39 0 -39 38v25zM307 245h304v-59h-304v59z" />
    <glyph glyph-name="a" unicode="a" 
d="M1 408q0 72 26 134t72 108t108 72t134 26t134 -26t108 -72t72.5 -108t26.5 -134v-575q0 -16 -7.5 -31t-19.5 -27t-27.5 -19t-31.5 -7t-31 7t-27 19t-19.5 27t-7.5 31q0 33 -13 48.5t-30 15.5q-16 0 -29 -15.5t-13 -48.5q0 -16 -7.5 -31t-19.5 -27t-27 -19t-31 -7t-31 7
t-27 19t-19.5 27t-7.5 31q0 33 -13 48.5t-30 15.5q-15 0 -28.5 -15.5t-13.5 -48.5q0 -16 -7.5 -31t-19.5 -27t-27.5 -19t-31.5 -7t-31 7t-27 19t-19 27t-7 31v575zM341 726q-64 0 -118.5 -26t-94.5 -69.5t-62.5 -101t-22.5 -121.5v-575q0 -15 13.5 -28.5t28.5 -13.5
q17 0 30.5 13.5t13.5 28.5q0 48 26.5 72t58.5 24t58.5 -24t26.5 -72q0 -15 12.5 -28.5t29.5 -13.5q16 0 29 13.5t13 28.5q0 32 12.5 53.5t31.5 32t41.5 10.5t41.5 -10.5t31.5 -32t12.5 -53.5q0 -15 13 -28.5t29 -13.5q17 0 29.5 13.5t12.5 28.5v575q0 64 -22.5 121.5
t-62.5 101t-94 69.5t-118 26zM213 344q0 -16 -3 -28t-7 -20q-4 -10 -10 -16q-17 0 -30.5 16t-13.5 48q0 17 13.5 29.5t30.5 12.5q6 -6 10 -13q4 -6 7 -13.5t3 -15.5zM532 344q0 -16 -3.5 -28t-7.5 -20q-4 -10 -10 -16q-16 0 -29.5 16t-13.5 48q0 17 13.5 29.5t29.5 12.5
q6 -6 10 -13q4 -6 7.5 -13.5t3.5 -15.5zM341 110q-48 0 -77 29t-29 77q0 17 2.5 19.5t18.5 2.5v-22q0 -16 7.5 -27.5t19.5 -19.5t27 -12t31 -4t31 4t27 12t19.5 19.5t7.5 27.5q0 17 2.5 19.5t18.5 2.5v-22q0 -48 -29 -77t-77 -29z" />
    <glyph glyph-name="b" unicode="b" 
d="M887 653q11 0 12.5 -2t1.5 -13v-83q0 -11 -1.5 -12.5t-12.5 -1.5h-42l-42 -776q0 -5 -2.5 -7.5l-4.5 -4.5q-3 -2 -6 -2h-652q-4 0 -7 2q-6 4 -6 12l-55 776h-42q-11 0 -19.5 1.5t-8.5 12.5v83q0 11 8.5 13t19.5 2h277v83q0 3 2 6l4.5 4.5t7.5 2.5h277q5 0 7 -2.5t4 -4.5
q2 -3 2 -6v-83h278zM332 653h251v68h-251v-68zM818 541h-722l57 -762h624zM873 624h-831v-54h831v54zM277 -152h-69v569q0 41 41 41q11 0 19.5 -10.5t8.5 -30.5v-569zM415 -152h-68v569q0 41 41 41q11 0 19 -10.5t8 -30.5v-569zM554 -152h-55v569q0 20 3.5 30.5t23.5 10.5
q21 0 24.5 -10.5t3.5 -30.5v-569zM707 -152h-70v569q0 20 3.5 30.5t25.5 10.5q41 0 41 -41v-569z" />
    <glyph glyph-name="c" unicode="c" 
d="M644 331q36 0 66 -14t51 -36.5t32.5 -51.5t11.5 -60q0 -36 -11.5 -68t-32.5 -56.5t-51 -38.5t-66 -14t-65.5 14t-50.5 38.5t-32.5 56.5t-11.5 68q0 31 11.5 60t32.5 51.5t50.5 36.5t65.5 14zM1127 572q31 0 60 -14t51.5 -36.5t36 -51t13.5 -58.5v-500q0 -30 -13.5 -59
t-36 -51.5t-51.5 -36.5t-60 -14h-966q-30 0 -59 14t-51.5 36.5t-36.5 51.5t-14 59v500q0 30 14 58.5t36.5 51t51.5 36.5t59 14h193q0 36 14 68.5t38 56.5t56.5 38t69.5 14h225q36 0 68.5 -14t56.5 -38t38 -56.5t14 -68.5h193zM644 -136q60 0 113 23t92.5 63.5t62 96.5
t22.5 122q0 61 -22.5 114t-62 92.5t-92.5 62t-113 22.5t-113 -22.5t-92 -62t-62 -92.5t-23 -114q0 -66 23 -122t62 -96.5t92 -63.5t113 -23z" />
    <glyph glyph-name="d" unicode="d" 
d="M515 -250q-102 0 -195 38t-164 106t-113 162.5t-42 207.5q0 103 42 191.5t113 154t164 103t195 37.5q103 0 191.5 -37.5t154 -103t103 -154t37.5 -191.5q11 -113 -25 -207.5t-104 -162.5t-161 -106t-196 -38zM698 477q-46 0 -68.5 -19t-22.5 -42q0 -91 91 -91
q23 0 41.5 23t18.5 68q0 12 -5 23t-13.5 19.5t-19.5 13.5t-22 5zM213 144q0 -45 26 -84t68.5 -67.5t97 -44.5t110.5 -16q57 0 107 16t87 44.5t58.5 67.5t21.5 84h-576zM335 477q-23 0 -42 -19t-19 -42q0 -45 19 -68t42 -23q91 0 91 91q0 23 -23 42t-68 19z" />
    <glyph glyph-name="e" unicode="e" 
d="M141 -250l149 410h-274l473 585l-148 -409h272z" />
    <glyph glyph-name="f" unicode="f" 
d="M1175 748v-749h-705l-235 -250v250h-235v749h1175zM1014 439v118h-838v-118h838zM1014 219v118h-838v-118h838z" />
    <glyph glyph-name="g" unicode="g" 
d="M934 751q34 0 63.5 -16t51 -41.5t33.5 -58t12 -66.5v-638q0 -34 -12 -66.5t-33.5 -58t-51 -41.5t-63.5 -16h-773q-35 0 -64 16t-50.5 41.5t-33.5 58t-12 66.5v638q0 34 12 66.5t33.5 58t50.5 41.5t64 16h773zM979 569q0 34 -13.5 51.5t-31.5 17.5h-773q-17 0 -32 -17.5
t-15 -51.5v-638q0 -34 15 -51t32 -17h773q18 0 31.5 17t13.5 51v638zM215 508h662v-93h-662v93zM215 295h662v-93h-662v93zM215 82h662v-93h-662v93z" />
    <glyph glyph-name="h" unicode="h" 
d="M488 690q91 0 171 -34.5t140 -94.5t94.5 -140t34.5 -171t-34.5 -171t-94.5 -140t-140 -94.5t-171 -34.5t-171 34.5t-140 94.5t-94.5 140t-34.5 171t34.5 171t94.5 140t140 94.5t171 34.5zM691 194q14 0 23 6t14 15t6.5 19t1.5 18q0 16 -11.5 33.5t-26.5 17.5h-159v158
q0 15 -17 27t-33 13q-22 1 -38 -13t-16 -29v-157h-154q-15 0 -29 -14.5t-15 -40.5q-1 -23 14 -37.5t30 -14.5l155 -2v-157q0 -8 5.5 -15t13.5 -13t17 -9.5t17 -3.5q16 0 33 12.5t17 27.5v159h152z" />
    <glyph glyph-name="i" unicode="i" 
d="M739 269q10 -1 19 -5q7 -4 13 -11t6 -21h-38h-331h-38q0 14 0.5 21.5t4 11t11.5 4t22 0.5h331zM777 121q0 -14 -6 -21t-13 -11q-9 -4 -19 -5h-331h-38v37h38h331h38zM777 -27l-38 -37h-331q-11 1 -19 5t-13.5 11t-5.5 21q1 10 5 18q4 7 11.5 12.5t21.5 5.5h331zM1221 269
q10 -1 18 -5q7 -4 12.5 -11t5.5 -21h-36h-333h-37q0 14 0.5 21.5t4 11t11 4t21.5 0.5h333zM1257 121q0 -14 -5.5 -21t-12.5 -11q-8 -4 -18 -5h-333h-37v37h37h333h36zM1257 -27l-36 -37h-333q-11 1 -19 5q-7 4 -12.5 11t-5.5 21q1 10 5 18q4 7 11 12.5t21 5.5h333zM1332 750
q27 0 53.5 -13t47.5 -34t34 -47.5t13 -53.5v-740q0 -14 -13 -33t-34 -36t-47.5 -29.5t-53.5 -12.5h-1184q-56 0 -86 12.5t-43.5 29.5t-16 36t-2.5 33v740v37h37h111v36q0 14 5.5 27.5t12.5 24.5q8 12 19 23h1147zM148 565h-73v-703l36 -36q14 0 21.5 0.5t11 4t4 10.5t0.5 21
v703zM1369 602q0 14 -0.5 21.5t-4 11t-11 4t-21.5 0.5h-1110v-37v-740v-36h1110q14 0 21 5.5t11 12.5q4 8 5 18v740zM1257 528v-148h-36h-851v148h851h36z" />
    <glyph glyph-name="j" unicode="j" 
d="M1344 -78q25 0 29.5 -4.5t4.5 -29.5v-103q0 -13 -0.5 -20t-3.5 -10.5t-10 -4t-20 -0.5h-276v35v137q0 26 -21.5 52t-47.5 52q-52 0 -103.5 21.5t-103.5 47.5v69h-69h-33q25 26 46.5 51.5t21.5 51.5q25 26 29.5 51.5t4.5 51.5v103v69q0 26 -0.5 46t-3.5 36t-10 29.5
t-20 26.5q13 0 20.5 5.5t14 11.5t14 11.5t20.5 5.5t25.5 5.5t25.5 12t26 12t26 5.5q10 -10 21 -18q10 -7 22 -12t26 -5q13 0 25.5 -5.5t22.5 -11.5q11 -8 21 -17q103 -103 103 -207q1 -68 9 -124q3 -24 8 -48t12 -45t17 -36.5t23 -21.5q-22 -10 -52 -17q-26 -7 -64.5 -12
t-89.5 -5v-103q0 -13 29 -26.5t74 -30t100 -36.5t107 -46zM999 -78v-137q0 -13 -0.5 -20t-4 -10.5t-10.5 -4t-20 -0.5h-929q-13 0 -20 0.5t-10.5 4t-4 10.5t-0.5 20v137l35 35q51 13 106.5 37t104 53.5t84.5 60t49 56.5v34q-13 13 -25 26.5t-21.5 29.5t-15.5 36t-6 46
q-14 0 -21 5t-10 12q-4 7 -4 17v70v102q0 207 207 207q51 0 90.5 -12.5t68.5 -35t49 -54t32 -70.5v-35v-102v-70q0 -10 -4 -17q-3 -7 -10 -12t-19 -5v-69h-35v-34q0 -10 -4 -18q-3 -7 -10.5 -12t-20.5 -5v-34q0 -13 12 -26.5t31.5 -29.5t44 -36t50.5 -46h69q0 -14 5 -21
t12 -10q7 -4 17 -4q13 0 20.5 -0.5t14 -3.5t14 -10t20.5 -20h34z" />
    <glyph glyph-name="k.001" unicode="k" 
 />
    <glyph glyph-name="l" unicode="l" 
d="M494 751q109 0 202 -38.5t161 -106.5t106.5 -161t38.5 -202q0 -104 -38.5 -194t-106.5 -157t-161 -105t-202 -38q-104 0 -194 38t-157 105t-105 157t-38 194q0 109 38 202t105 161t157 106.5t194 38.5zM538 -19q38 6 67.5 21t49.5 37t30.5 48.5t10.5 53.5q0 65 -34 101.5
t-110 58.5q-55 21 -78.5 43t-23.5 44q0 6 3 13t11.5 14t22.5 11.5t36 4.5q43 0 75.5 -8.5t55.5 -19.5l14 101q-11 6 -22.5 11t-26.5 9.5t-34.5 7t-46.5 2.5v72h-74v-87q-76 -11 -117 -51.5t-41 -94.5q0 -32 12.5 -57t34 -44t50.5 -33.5t61 -25.5q28 -11 47.5 -19.5t31.5 -18
t17.5 -21t5.5 -27.5q0 -23 -27 -33.5t-60 -10.5q-43 0 -83 9t-62 20l-28 -101q21 -11 60.5 -20.5t83.5 -9.5v-87h88v87z" />
    <glyph glyph-name="m" unicode="m" 
d="M481 698q4 6 8.5 14.5t11 16t16.5 13t26 5.5q22 0 33 -15t22 -34l466 -815q12 -25 14.5 -49t-7 -43t-32 -30.5t-59.5 -11.5h-865q-38 0 -60 11.5t-31.5 30.5t-6.5 43t15 49zM481 66h117v382h-117v-382zM481 -117h117v98h-117v-98z" />
    <glyph glyph-name="n" unicode="n" 
d="M2 249q0 104 39.5 195.5t107.5 159.5t159 107.5t195 39.5t195.5 -39.5t159.5 -107.5t107.5 -159.5t39.5 -195.5t-39.5 -195t-107.5 -159t-159.5 -107.5t-195.5 -39.5t-195 39.5t-159 107.5t-107.5 159t-39.5 195zM457 162l-226 177l-78 -91l229 -187l99 -78l348 445
l-98 78z" />
    <glyph glyph-name="o" unicode="o" 
d="M598 -248h-16q-13 12 -37.5 35t-62.5 48q-50 37 -108.5 76.5t-113 77t-98 70.5t-62.5 58q-50 63 -75 125t-25 125q0 43 5 82t17 72.5t32 63t51 55.5q50 50 118 79.5t143 29.5q63 0 122.5 -23t109.5 -61q51 38 110.5 61t122.5 23q75 0 144 -27.5t119 -77.5
q62 -51 82.5 -120.5t20.5 -156.5q0 -148 -100 -250q-25 -25 -69 -60.5t-97 -74.5t-109.5 -77.5t-106.5 -69.5q-38 -25 -62.5 -48t-37.5 -35h-17z" />
    <glyph glyph-name="p" unicode="p" 
d="M256 -165q62 0 121.5 13.5t97.5 40.5v-3v-51q0 -18 -17 -33.5t-46.5 -27.5t-69.5 -19t-86 -7q-44 0 -83.5 7t-69.5 19t-47.5 27.5t-17.5 33.5v51l3 3q36 -27 94.5 -40.5t120.5 -13.5zM256 -34q62 0 121.5 13.5t97.5 40.5v-3v-51q0 -18 -17 -34t-46.5 -28t-69.5 -19
t-86 -7q-44 0 -83.5 7t-69.5 19t-47.5 28t-17.5 34v51l3 3q36 -27 94.5 -40.5t120.5 -13.5zM38 147q19 -14 44 -24.5t53.5 -17.5t59 -11t61.5 -4q63 0 122.5 15t96.5 42v-50q0 -18 -17 -34t-46.5 -28t-69.5 -19t-86 -7q-44 0 -83.5 7t-69.5 19t-47.5 28t-17.5 34v50z
M256 364q46 0 86 -7t69.5 -19.5t46.5 -28.5t17 -34v-50q0 -18 -17 -34.5t-46.5 -28.5t-69.5 -19t-86 -7q-44 0 -83.5 7t-69.5 19t-47.5 28.5t-17.5 34.5v50q0 18 17.5 34t47.5 28.5t69.5 19.5t83.5 7zM763 -165q63 0 122 13.5t98 40.5v-3v-51q0 -18 -17 -33.5t-47 -27.5
t-70 -19t-86 -7q-44 0 -83.5 7t-69 19t-47 27.5t-17.5 33.5v51v3q19 -14 44 -24t53.5 -16.5t59 -10t60.5 -3.5zM763 -34q63 0 122 13.5t98 40.5v-3v-51q0 -18 -17 -34t-47 -28t-70 -19t-86 -7q-44 0 -83.5 7t-69 19t-47 28t-17.5 34v51v3q19 -14 44 -24t53.5 -16.5t59 -10
t60.5 -3.5zM546 147q19 -14 44 -24.5t53.5 -17.5t59 -11t60.5 -4q63 0 122 15t98 42v-50q0 -18 -17 -34t-47 -28t-70 -19t-86 -7q-44 0 -83.5 7t-69 19t-47 28t-17.5 34v50zM763 225q63 0 122 13t98 40v-3v-50q0 -18 -17 -34.5t-47 -28.5t-70 -19t-86 -7q-44 0 -83.5 7
t-69 19t-47 28.5t-17.5 34.5v50v3q19 -14 44 -23.5t53.5 -16.5t59 -10t60.5 -3zM763 355q63 0 122 13t98 40v-3v-50q0 -18 -17 -34t-47 -28t-70 -19t-86 -7q-44 0 -83.5 7t-69 19t-47 28t-17.5 34v50v3q19 -14 44 -23.5t53.5 -16.5t59 -10t60.5 -3zM546 533q19 -14 44 -23.5
t53.5 -16.5t59 -10t60.5 -3q63 0 122 13t98 40v-47q0 -18 -17 -34.5t-47 -28.5t-70 -19t-86 -7q-44 0 -83.5 7t-69 19t-47 28.5t-17.5 34.5v47zM763 752q46 0 86 -7t70 -19t47 -27.5t17 -33.5v-54q0 -18 -17 -34t-47 -27.5t-70 -18t-86 -6.5q-44 0 -83.5 6.5t-69 18
t-47 27.5t-17.5 34v54q0 18 17.5 33.5t47 27.5t69 19t83.5 7z" />
    <glyph glyph-name="q" unicode="q" 
d="M393 -113q-2 3 -5 4.5t-6 3.5q-7 2 -17 6t-19 8q-11 4 -22 9h-16l-121 -60l-75 75v8q3 6 10 21.5t15 32.5t15 32.5t10 21.5q3 8 3.5 11t0.5 8v8q-2 3 -5 10.5t-7 16.5t-7 16.5t-4 10.5q-2 3 -4.5 8t-7.5 7l-131 45v110q7 3 25 9t38.5 13.5t38.5 14t25 9.5q3 2 6.5 3.5
t5.5 4.5q2 5 6.5 13.5t9 19t8 22t3.5 20.5v6l-60 117l79 79l127 -58h2q7 0 19 3t25 8t23 11.5t12 12.5l45 131h109q2 0 10 -21t17.5 -46t17 -46t9.5 -22q15 -8 35.5 -17t34.5 -14h2h2q2 0 5.5 2t5.5 2l116 58l79 -79l-60 -125v-8q5 -12 9 -23q4 -9 7.5 -19t6.5 -16
q1 -2 2 -4.5t3 -4.5q2 -3 3 -6l131 -45v-111l-127 -49l-8 -7q-5 -12 -9 -23q-4 -9 -8 -19t-6 -16q0 -2 -2 -6t-2 -6v-2v-2l62 -123l-79 -79l-122 56h-15q-2 0 -12.5 -3t-23 -8t-23.5 -12t-14 -16l-41 -123h-110q-1 1 -2 3q-2 4 -2 5q-3 7 -9 24.5t-13.5 37t-14 37t-9.5 24.5
zM339 248q0 -33 12 -62t33 -50t49.5 -33t61.5 -12q32 0 60.5 11.5t50 32.5t34 49.5t12.5 61.5q0 31 -12.5 60t-33.5 50.5t-49.5 34.5t-61.5 13q-32 0 -60.5 -12.5t-49.5 -33.5t-33.5 -49.5t-12.5 -60.5z" />
    <glyph glyph-name="r" unicode="r" 
d="M841 -217q0 -12 -12 -21.5t-35 -9.5h-384q-11 0 -20 9.5t-9 21.5v308q0 23 9 34.5t20 11.5h384q47 0 47 -46v-308zM918 229q0 -12 -11.5 -21.5t-34.5 -9.5h-462q-11 0 -20 9.5t-9 21.5v153q0 13 9 22t20 9h462q23 0 34.5 -9t11.5 -22v-153zM303 -217q0 -12 -11.5 -21.5
t-34.5 -9.5h-139q-11 0 -20.5 9.5t-9.5 21.5v308q0 23 9.5 34.5t20.5 11.5h139q46 0 46 -46v-308zM303 229q0 -12 -11.5 -21.5t-34.5 -9.5h-215q-12 0 -21.5 9.5t-9.5 21.5v153q0 13 9.5 22t21.5 9h215q23 0 34.5 -9t11.5 -22v-153zM810 645q0 -29 -23 -59.5t-67.5 -55
t-110.5 -40t-152 -15.5q-92 0 -161.5 13.5t-115.5 36.5t-69 54t-23 66q0 22 10.5 42t27.5 34t39.5 22.5t45.5 8.5q46 0 83.5 -17.5t67.5 -43.5t53.5 -55.5t41.5 -52.5q12 23 34 52.5t52 55.5t66.5 43.5t77.5 17.5q35 0 67.5 -13.5t55.5 -48.5v-45zM211 597q12 -5 29 -13
t40 -15t51.5 -12t63.5 -5q-17 23 -37 47.5t-43 44.5t-49 33t-55 13q-47 0 -47 -45q0 -13 12 -24t35 -24zM734 628q5 6 8 11.5t5 10.5t2 9q-11 11 -25 21t-37 10q-29 0 -54.5 -13t-47.5 -33t-38.5 -44.5t-27.5 -47.5q103 11 153 32t62 44z" />
    <glyph glyph-name="s" unicode="s" 
d="M66 -97q0 5 1.5 10t6.5 10l295 300q7 6 8 12t1 14q0 5 -0.5 9.5t-4.5 7.5l-295 299q-7 7 -8 11.5t-1 12.5t1 15t8 14l117 112q15 10 31 0l304 -299q3 -3 10.5 -6t12.5 -3t13 3t11 6l300 295q8 9 21 9q1 0 3.5 -1t4.5 -2l6 -2l121 -121q5 -5 6.5 -10t1.5 -10t-1.5 -9.5
t-6.5 -9.5l-299 -304q-4 -3 -4.5 -7.5t-0.5 -9.5q0 -8 1 -14t8 -12l295 -300q5 -5 6.5 -10.5t1.5 -10.5t-1.5 -9t-6.5 -9l-113 -113q-3 -3 -11 -6t-13 -3t-12.5 3t-11.5 6l-303 300h-31l-312 -304q-2 -2 -5 -3q-6 -2 -8 -2h-2q-5 0 -13 3t-11 6l-113 113q-5 5 -6.5 9.5
t-1.5 9.5z" />
    <glyph glyph-name="t" unicode="t" 
d="M927 -169q-19 -20 -35 -24.5t-36.5 0t-48.5 16t-69 23t-99.5 20.5t-139.5 9q-82 0 -140 -9t-100 -20.5t-69.5 -23t-48.5 -16t-37 0t-35 24.5q-16 22 -5.5 53t36 64.5t59 67.5t62.5 63q53 -52 124.5 -80.5t153.5 -28.5q81 0 151 28.5t125 80.5q29 -29 62.5 -63t58.5 -67.5
t35.5 -64.5t-4.5 -53zM130 395q4 72 34 135.5t79.5 111t115 74.5t140.5 27q73 0 138 -27t114.5 -74.5t79.5 -111t33 -135.5h-178q-3 36 -19 67t-41.5 54.5t-58 36.5t-68.5 13q-38 0 -71 -13t-57.5 -36.5t-40 -54.5t-18.5 -67h-182zM864 360q-3 -73 -33 -137t-79.5 -111
t-114.5 -74.5t-138 -27.5q-75 0 -140.5 27.5t-115 74.5t-79.5 111t-34 137h182q3 -35 18.5 -66.5t40 -54.5t57.5 -36.5t71 -13.5q36 0 68.5 13.5t58 36.5t41.5 54.5t19 66.5h178zM620 379q0 -25 -9.5 -47t-26 -38.5t-38.5 -26t-47 -9.5q-26 0 -48.5 9.5t-39 26t-26 38.5
t-9.5 47t9.5 47t26 39t39 27t48.5 10q25 0 47 -10t38.5 -27t26 -39t9.5 -47zM556 432q0 16 -11 26.5t-27 10.5q-20 0 -31 -10.5t-11 -26.5q0 -17 11 -28t31 -11q16 0 27 11t11 28z" />
    <glyph glyph-name="u" unicode="u" 
d="M0 750h1301v-997l-1301 -3v1000zM100 650v-801h1101v801h-1101zM200 -51q3 168 25 300q9 56 23.5 110t35.5 96.5t49.5 68.5t66.5 26q25 0 42.5 -29.5t31.5 -74.5t26 -96.5t25.5 -96.5t31 -74.5t42.5 -29.5q38 0 60.5 15.5t41.5 34.5t40.5 34.5t59.5 15.5q19 0 41.5 -13
t47 -34t49.5 -48t49 -55q55 -66 113 -150h-901zM1002 328q-38 0 -58.5 15t-29.5 34q-11 22 -12 50q0 38 5.5 62t17.5 37t31 17.5t45 4.5q30 0 49.5 -5t31 -18t16 -36.5t4.5 -61.5q-2 -28 -13 -50q-10 -19 -29.5 -34t-57.5 -15z" />
    <glyph glyph-name="v" unicode="v" 
d="M1118 -19q14 -5 41 -19t53.5 -40.5t46 -67t19.5 -98.5h-957q0 58 18.5 98.5t44 67t51.5 40.5t40 19q15 4 33.5 7.5t36.5 6.5t33.5 6t24.5 7q17 5 36 12t24 16q4 3 6.5 18.5t3.5 32.5q1 20 1 44q-7 6 -13 14q-5 7 -11 15t-11 19q-4 10 -6 26t-4 31q-2 18 -3 37h-8
q-3 0 -11 6t-16 30q-3 15 -6.5 26.5t-6.5 22t-4.5 20.5t0.5 21q4 13 8 17.5t9 4.5h5q-7 9 -11 26q-5 14 -8 38t-3 61q0 39 14.5 75.5t42.5 65t70 45.5t98 17q54 0 95 -17t68.5 -45.5t42 -65t14.5 -75.5q0 -37 -3 -61t-6 -38q-4 -17 -8 -26h5q2 0 7.5 -4.5t9.5 -17.5
q0 -11 -2.5 -21t-5.5 -20.5t-7 -22t-7 -26.5q-3 -24 -11 -30t-16 -6h-4q-2 -19 -5 -37q-2 -15 -5.5 -31t-6.5 -26q-3 -11 -8.5 -19t-11.5 -15q-7 -8 -14 -14q0 -24 1 -44q1 -17 2 -32.5t4 -18.5q11 -9 29.5 -16t30.5 -12q12 -4 28.5 -7t34.5 -6t35.5 -6.5t32.5 -7.5zM410 24
q-18 -10 -36.5 -24t-34 -28t-26 -28t-11.5 -24h-276q0 24 8 46.5t19.5 40t25 29t24.5 15.5q20 5 42 12t45 12q9 4 22.5 7.5t21.5 9.5q2 3 2 12.5t1 20.5q0 12 1 27l-4 -3q-4 0 -18 1t-31.5 4t-35 9t-28.5 16q20 26 26 58t5.5 66.5t-2.5 70t1 68.5q9 66 49 104.5t111 38.5h4
q75 0 114 -38.5t46 -104.5q4 -32 3 -65.5t0 -67.5t8 -66.5t28 -63.5q-13 -11 -32.5 -16.5t-38.5 -8.5q-22 -4 -45 -5q-1 -14 -1 -25q0 -10 0.5 -19.5t3.5 -12.5q2 -3 12 -7t22 -8q14 -4 31 -8q17 -2 23.5 -6.5t8.5 -9.5t0 -12q-20 0 -42 -2t-46 -15zM1295 -80
q-3 10 -13.5 24t-26 28t-34.5 28t-38 24q-23 9 -44 11t-37 6q-5 7 -4 12t6.5 9.5t22.5 6.5q17 4 31 8q12 4 23 8t14 7q2 3 2.5 12.5t-0.5 19.5q-1 11 -2 25q-23 0 -44 4q-18 3 -37 9t-30 17q19 31 25 63.5t6.5 65.5t-1 67t3.5 67q7 66 48.5 104.5t116.5 38.5h4
q72 0 109 -38.5t46 -104.5q4 -32 2 -67.5t-2 -70t6.5 -67t27.5 -58.5q-11 -10 -29 -15.5t-36.5 -8t-33 -3t-17.5 -0.5q-1 -15 -1 -27q0 -11 0.5 -20.5t4.5 -12.5q4 -6 17 -9.5t22 -7.5q24 -5 48 -12t44 -12q9 -4 22 -15.5t25.5 -29t21 -40t8.5 -46.5h-277z" />
    <glyph glyph-name="w" unicode="w" 
d="M1076 72q0 -5 -2.5 -14t-7.5 -17.5t-12.5 -15t-17.5 -6.5q-10 -11 -19.5 -12.5t-20.5 -1.5l-199 54l-80 -306h-372q10 35 20 74t19.5 77.5t19.5 74.5t20 66l-186 -93q-20 -10 -44.5 -1.5t-34.5 28.5q0 3 -7 30t-17.5 66t-22.5 83.5t-22.5 83.5t-17.5 66t-7 30
q-10 10 -21 24.5t-20 33.5t-13 41t1 47q5 20 8.5 33t7 22t9 14.5t15.5 10.5v106q0 40 40 40h27q10 -5 19.5 -14.5t17 -20.5t12 -23t4.5 -22v-212q0 -10 -4.5 -15.5t-10.5 -8t-13 -3t-12 -0.5h-13v-40l133 -253l319 173q20 11 48 12.5t58 1.5q30 -11 51.5 -30.5t41.5 -49.5
l160 -53l-40 212q-10 0 -20 15t-20 25q-10 0 -18.5 1.5t-8.5 12.5q0 10 1.5 18t12.5 8v13l-54 94q-9 0 -5 6q2 3 5 7h14l53 -67l-27 80q0 10 1.5 18.5t12.5 8.5q3 0 6 -2l4.5 -4.5t2.5 -7.5l40 -79v13h26h14h13v-40q0 -5 2 -16.5t4.5 -25t4.5 -27.5t2 -24zM597 338
q-35 20 -59.5 49t-37 64t-12 74t15.5 79q15 35 43.5 61.5t63.5 40t73 12.5t73 -21q30 -10 51.5 -30t41.5 -50h-13h-14q-10 0 -11.5 -1.5t-1.5 -11.5q-5 0 -7 -2.5t-4 -4.5q-2 -4 -2 -7q-11 0 -14 -1.5t-13 -11.5q-5 0 -7 -2.5t-4 -4.5q-2 -3 -2 -6v-27l53 -80
q-10 -10 -11.5 -19.5t-1.5 -19.5q10 -11 13 -19t13 -8q-20 -20 -46.5 -34.5t-56.5 -22t-61.5 -7t-61.5 10.5z" />
    <glyph glyph-name="x" unicode="x" 
d="M956 -211l-25 -27q-29 24 -82.5 55t-121 64.5t-143.5 68.5t-151 68q-176 77 -380 158l-52 335l233 233l335 -78q88 -211 168 -387q34 -75 69.5 -150t68 -138.5t60.5 -110.5t48 -66l-27 -25l-465 490q41 77 0 155q-19 10 -42.5 14.5t-47.5 4.5t-47.5 -4.5t-42.5 -14.5
q-20 -20 -29.5 -43.5t-9.5 -47.5t9.5 -48t29.5 -43q39 -38 78 -41.5t77 16.5z" />
    <glyph glyph-name="y" unicode="y" 
d="M389 32q-37 0 -69 15t-55.5 40.5t-37 59.5t-13.5 72v344q0 38 13.5 72t37 59.5t55.5 40t69 14.5q36 0 68 -14.5t56 -40t38 -59.5t14 -72v-344q0 -38 -14 -72t-38 -59.5t-56 -40.5t-68 -15zM674 391v-178q0 -56 -20 -106t-55.5 -88t-83 -62t-101.5 -28v-140h153v-38h-359
v38h162v140q-56 4 -104.5 28t-85 62t-57.5 88t-21 106v178h44v-178q0 -50 19 -94.5t52.5 -77.5t78.5 -52t96 -19q50 0 94.5 19t78.5 52t53.5 77.5t19.5 94.5v178h36z" />
    <glyph glyph-name="z" unicode="z" 
d="M121 726l31 19l570 -975l-30 -16zM387 34q43 0 75 16l-250 429v-261q0 -38 14 -71.5t37.5 -58.5t55.5 -39.5t68 -14.5zM561 218v342q0 38 -13.5 72t-37 59t-55.5 39.5t-68 14.5q-44 0 -78.5 -19.5t-60.5 -52.5l302 -515q6 12 8.5 27.5t2.5 32.5zM670 213v178h-36v-178
q0 -35 -10 -68t-29 -62l23 -36q25 35 38.5 77.5t13.5 88.5zM412 -68q27 2 53 9.5t49 20.5l-19 33q-52 -22 -105 -22q-51 0 -95.5 19t-77.5 51.5t-52 76t-19 93.5v178h-44v-178q0 -56 21 -105.5t57 -87t84.5 -61t103.5 -27.5v-140h-161v-38h357v38h-152v140z" />
    <glyph glyph-name="k" 
 />
  </font>
</defs>
</svg>
